<svg width="21" height="21" viewBox="0 0 21 21" fill="none" xmlns="http://www.w3.org/2000/svg">
<g id="headphones">
<path id="Vector" d="M2.8333 12.1667H5.3333C5.77533 12.1667 6.19925 12.3423 6.51181 12.6548C6.82437 12.9674 6.99996 13.3913 6.99996 13.8333V16.3333C6.99996 16.7754 6.82437 17.1993 6.51181 17.5118C6.19925 17.8244 5.77533 18 5.3333 18H4.49996C4.05794 18 3.63401 17.8244 3.32145 17.5118C3.00889 17.1993 2.8333 16.7754 2.8333 16.3333V10.5C2.8333 8.51088 3.62347 6.60322 5.03 5.1967C6.43652 3.79018 8.34417 3 10.3333 3C12.3224 3 14.2301 3.79018 15.6366 5.1967C17.0431 6.60322 17.8333 8.51088 17.8333 10.5V16.3333C17.8333 16.7754 17.6577 17.1993 17.3451 17.5118C17.0326 17.8244 16.6087 18 16.1666 18H15.3333C14.8913 18 14.4673 17.8244 14.1548 17.5118C13.8422 17.1993 13.6666 16.7754 13.6666 16.3333V13.8333C13.6666 13.3913 13.8422 12.9674 14.1548 12.6548C14.4673 12.3423 14.8913 12.1667 15.3333 12.1667H17.8333" stroke="white" stroke-width="2" stroke-linecap="round" stroke-linejoin="round"/>
</g>
</svg>
