<svg width="21" height="21" viewBox="0 0 21 21" fill="none" xmlns="http://www.w3.org/2000/svg">
<g id="keyboard" clip-path="url(#clip0_344_135)">
<path id="Vector" d="M16.8334 3.83334H3.50004C2.57957 3.83334 1.83337 4.57954 1.83337 5.50001V15.5C1.83337 16.4205 2.57957 17.1667 3.50004 17.1667H16.8334C17.7538 17.1667 18.5 16.4205 18.5 15.5V5.50001C18.5 4.57954 17.7538 3.83334 16.8334 3.83334Z" stroke="white" stroke-width="2" stroke-linecap="round" stroke-linejoin="round"/>
<path id="Vector_2" d="M5.16669 7.16666H5.16769" stroke="white" stroke-width="2" stroke-linecap="round" stroke-linejoin="round"/>
<path id="Vector_3" d="M8.5 7.16666H8.501" stroke="white" stroke-width="2" stroke-linecap="round" stroke-linejoin="round"/>
<path id="Vector_4" d="M11.8334 7.16666H11.8344" stroke="white" stroke-width="2" stroke-linecap="round" stroke-linejoin="round"/>
<path id="Vector_5" d="M15.1667 7.16666H15.1677" stroke="white" stroke-width="2" stroke-linecap="round" stroke-linejoin="round"/>
<path id="Vector_6" d="M6.83337 10.5H6.83437" stroke="white" stroke-width="2" stroke-linecap="round" stroke-linejoin="round"/>
<path id="Vector_7" d="M10.1667 10.5H10.1677" stroke="white" stroke-width="2" stroke-linecap="round" stroke-linejoin="round"/>
<path id="Vector_8" d="M13.5 10.5H13.501" stroke="white" stroke-width="2" stroke-linecap="round" stroke-linejoin="round"/>
<path id="Vector_9" d="M6 13.8333H14.3333" stroke="white" stroke-width="2" stroke-linecap="round" stroke-linejoin="round"/>
</g>
<defs>
<clipPath id="clip0_344_135">
<rect width="20" height="20" fill="white" transform="translate(0.166687 0.5)"/>
</clipPath>
</defs>
</svg>
