<svg width="21" height="21" viewBox="0 0 21 21" fill="none" xmlns="http://www.w3.org/2000/svg">
<g id="square-dashed-bottom">
<path id="Vector" d="M4.33333 18C3.8913 18 3.46738 17.8244 3.15482 17.5118C2.84226 17.1993 2.66666 16.7754 2.66666 16.3333V4.66667C2.66666 4.22464 2.84226 3.80072 3.15482 3.48816C3.46738 3.17559 3.8913 3 4.33333 3H16C16.442 3 16.8659 3.17559 17.1785 3.48816C17.4911 3.80072 17.6667 4.22464 17.6667 4.66667V16.3333C17.6667 16.7754 17.4911 17.1993 17.1785 17.5118C16.8659 17.8244 16.442 18 16 18" stroke="white" stroke-width="2" stroke-linecap="round" stroke-linejoin="round"/>
<path id="Vector_2" d="M7.66666 18H8.5" stroke="white" stroke-width="2" stroke-linecap="round" stroke-linejoin="round"/>
<path id="Vector_3" d="M11.8333 18H12.6667" stroke="white" stroke-width="2" stroke-linecap="round" stroke-linejoin="round"/>
</g>
</svg>
