<svg width="21" height="21" viewBox="0 0 21 21" fill="none" xmlns="http://www.w3.org/2000/svg">
<g id="speaker">
<path id="Vector" d="M15.8333 2.16666H5.83332C4.91285 2.16666 4.16666 2.91285 4.16666 3.83332V17.1667C4.16666 18.0871 4.91285 18.8333 5.83332 18.8333H15.8333C16.7538 18.8333 17.5 18.0871 17.5 17.1667V3.83332C17.5 2.91285 16.7538 2.16666 15.8333 2.16666Z" stroke="white" stroke-width="2" stroke-linecap="round" stroke-linejoin="round"/>
<path id="Vector_2" d="M10.8333 15.5C12.6743 15.5 14.1666 14.0076 14.1666 12.1667C14.1666 10.3257 12.6743 8.83334 10.8333 8.83334C8.99235 8.83334 7.49997 10.3257 7.49997 12.1667C7.49997 14.0076 8.99235 15.5 10.8333 15.5Z" stroke="white" stroke-width="2" stroke-linecap="round" stroke-linejoin="round"/>
<path id="Vector_3" d="M10.8333 5.5H10.8416" stroke="white" stroke-width="2" stroke-linecap="round" stroke-linejoin="round"/>
</g>
</svg>
